<?xml version="1.0" encoding="UTF-8" standalone="no"?>
<!DOCTYPE svg PUBLIC "-//W3C//DTD SVG 1.1//EN"
 "http://www.w3.org/Graphics/SVG/1.1/DTD/svg11.dtd">
<!-- Generated by graphviz version 14.1.5 (0)
 -->
<!-- Title: G Pages: 1 -->
<svg width="337pt" height="571pt"
 viewBox="0.00 0.00 337.00 571.00" xmlns="http://www.w3.org/2000/svg" xmlns:xlink="http://www.w3.org/1999/xlink">
<g id="graph0" class="graph" transform="scale(1 1) rotate(0) translate(21.6 549.35)">
<title>G</title>
<polygon fill="#111111" stroke="none" points="-21.6,21.6 -21.6,-549.35 315.35,-549.35 315.35,21.6 -21.6,21.6"/>
<!-- _base.scss -->
<g id="node1" class="node">
<title>_base.scss</title>
<path fill="none" stroke="#cfffac" d="M245.71,-527.75C245.71,-527.75 178.04,-527.75 178.04,-527.75 174.08,-527.75 170.12,-523.79 170.12,-519.83 170.12,-519.83 170.12,-511.92 170.12,-511.92 170.12,-507.96 174.08,-504 178.04,-504 178.04,-504 245.71,-504 245.71,-504 249.67,-504 253.62,-507.96 253.62,-511.92 253.62,-511.92 253.62,-519.83 253.62,-519.83 253.62,-523.79 249.67,-527.75 245.71,-527.75"/>
<text xml:space="preserve" text-anchor="middle" x="211.88" y="-510.45" font-family="Arial" font-size="14.00" fill="#cfffac">_base.scss</text>
</g>
<!-- _bootstrap&#45;override.scss -->
<g id="node2" class="node">
<title>_bootstrap&#45;override.scss</title>
<path fill="none" stroke="#cfffac" d="M285.83,-485.75C285.83,-485.75 137.92,-485.75 137.92,-485.75 133.96,-485.75 130,-481.79 130,-477.83 130,-477.83 130,-469.92 130,-469.92 130,-465.96 133.96,-462 137.92,-462 137.92,-462 285.83,-462 285.83,-462 289.79,-462 293.75,-465.96 293.75,-469.92 293.75,-469.92 293.75,-477.83 293.75,-477.83 293.75,-481.79 289.79,-485.75 285.83,-485.75"/>
<text xml:space="preserve" text-anchor="middle" x="211.88" y="-468.45" font-family="Arial" font-size="14.00" fill="#cfffac">_bootstrap&#45;override.scss</text>
</g>
<!-- _community.scss -->
<g id="node3" class="node">
<title>_community.scss</title>
<path fill="none" stroke="#cfffac" d="M264.08,-443.75C264.08,-443.75 159.67,-443.75 159.67,-443.75 155.71,-443.75 151.75,-439.79 151.75,-435.83 151.75,-435.83 151.75,-427.92 151.75,-427.92 151.75,-423.96 155.71,-420 159.67,-420 159.67,-420 264.08,-420 264.08,-420 268.04,-420 272,-423.96 272,-427.92 272,-427.92 272,-435.83 272,-435.83 272,-439.79 268.04,-443.75 264.08,-443.75"/>
<text xml:space="preserve" text-anchor="middle" x="211.88" y="-426.45" font-family="Arial" font-size="14.00" fill="#cfffac">_community.scss</text>
</g>
<!-- _docs&#45;preview.scss -->
<g id="node4" class="node">
<title>_docs&#45;preview.scss</title>
<path fill="none" stroke="#cfffac" d="M270.46,-401.75C270.46,-401.75 153.29,-401.75 153.29,-401.75 149.33,-401.75 145.38,-397.79 145.38,-393.83 145.38,-393.83 145.38,-385.92 145.38,-385.92 145.38,-381.96 149.33,-378 153.29,-378 153.29,-378 270.46,-378 270.46,-378 274.42,-378 278.38,-381.96 278.38,-385.92 278.38,-385.92 278.38,-393.83 278.38,-393.83 278.38,-397.79 274.42,-401.75 270.46,-401.75"/>
<text xml:space="preserve" text-anchor="middle" x="211.88" y="-384.45" font-family="Arial" font-size="14.00" fill="#cfffac">_docs&#45;preview.scss</text>
</g>
<!-- _docs.scss -->
<g id="node5" class="node">
<title>_docs.scss</title>
<path fill="none" stroke="#cfffac" d="M245.33,-359.75C245.33,-359.75 178.42,-359.75 178.42,-359.75 174.46,-359.75 170.5,-355.79 170.5,-351.83 170.5,-351.83 170.5,-343.92 170.5,-343.92 170.5,-339.96 174.46,-336 178.42,-336 178.42,-336 245.33,-336 245.33,-336 249.29,-336 253.25,-339.96 253.25,-343.92 253.25,-343.92 253.25,-351.83 253.25,-351.83 253.25,-355.79 249.29,-359.75 245.33,-359.75"/>
<text xml:space="preserve" text-anchor="middle" x="211.88" y="-342.45" font-family="Arial" font-size="14.00" fill="#cfffac">_docs.scss</text>
</g>
<!-- _features.scss -->
<g id="node6" class="node">
<title>_features.scss</title>
<path fill="none" stroke="#cfffac" d="M255.46,-317.75C255.46,-317.75 168.29,-317.75 168.29,-317.75 164.33,-317.75 160.38,-313.79 160.38,-309.83 160.38,-309.83 160.38,-301.92 160.38,-301.92 160.38,-297.96 164.33,-294 168.29,-294 168.29,-294 255.46,-294 255.46,-294 259.42,-294 263.38,-297.96 263.38,-301.92 263.38,-301.92 263.38,-309.83 263.38,-309.83 263.38,-313.79 259.42,-317.75 255.46,-317.75"/>
<text xml:space="preserve" text-anchor="middle" x="211.88" y="-300.45" font-family="Arial" font-size="14.00" fill="#cfffac">_features.scss</text>
</g>
<!-- _footer.scss -->
<g id="node7" class="node">
<title>_footer.scss</title>
<path fill="none" stroke="#cfffac" d="M247.96,-275.75C247.96,-275.75 175.79,-275.75 175.79,-275.75 171.83,-275.75 167.88,-271.79 167.88,-267.83 167.88,-267.83 167.88,-259.92 167.88,-259.92 167.88,-255.96 171.83,-252 175.79,-252 175.79,-252 247.96,-252 247.96,-252 251.92,-252 255.88,-255.96 255.88,-259.92 255.88,-259.92 255.88,-267.83 255.88,-267.83 255.88,-271.79 251.92,-275.75 247.96,-275.75"/>
<text xml:space="preserve" text-anchor="middle" x="211.88" y="-258.45" font-family="Arial" font-size="14.00" fill="#cfffac">_footer.scss</text>
</g>
<!-- _home.scss -->
<g id="node8" class="node">
<title>_home.scss</title>
<path fill="none" stroke="#cfffac" d="M248.33,-233.75C248.33,-233.75 175.42,-233.75 175.42,-233.75 171.46,-233.75 167.5,-229.79 167.5,-225.83 167.5,-225.83 167.5,-217.92 167.5,-217.92 167.5,-213.96 171.46,-210 175.42,-210 175.42,-210 248.33,-210 248.33,-210 252.29,-210 256.25,-213.96 256.25,-217.92 256.25,-217.92 256.25,-225.83 256.25,-225.83 256.25,-229.79 252.29,-233.75 248.33,-233.75"/>
<text xml:space="preserve" text-anchor="middle" x="211.88" y="-216.45" font-family="Arial" font-size="14.00" fill="#cfffac">_home.scss</text>
</g>
<!-- _installation.scss -->
<g id="node9" class="node">
<title>_installation.scss</title>
<path fill="none" stroke="#cfffac" d="M262.96,-191.75C262.96,-191.75 160.79,-191.75 160.79,-191.75 156.83,-191.75 152.88,-187.79 152.88,-183.83 152.88,-183.83 152.88,-175.92 152.88,-175.92 152.88,-171.96 156.83,-168 160.79,-168 160.79,-168 262.96,-168 262.96,-168 266.92,-168 270.88,-171.96 270.88,-175.92 270.88,-175.92 270.88,-183.83 270.88,-183.83 270.88,-187.79 266.92,-191.75 262.96,-191.75"/>
<text xml:space="preserve" text-anchor="middle" x="211.88" y="-174.45" font-family="Arial" font-size="14.00" fill="#cfffac">_installation.scss</text>
</g>
<!-- _navbar.scss -->
<g id="node10" class="node">
<title>_navbar.scss</title>
<path fill="none" stroke="#cfffac" d="M251.33,-149.75C251.33,-149.75 172.42,-149.75 172.42,-149.75 168.46,-149.75 164.5,-145.79 164.5,-141.83 164.5,-141.83 164.5,-133.92 164.5,-133.92 164.5,-129.96 168.46,-126 172.42,-126 172.42,-126 251.33,-126 251.33,-126 255.29,-126 259.25,-129.96 259.25,-133.92 259.25,-133.92 259.25,-141.83 259.25,-141.83 259.25,-145.79 255.29,-149.75 251.33,-149.75"/>
<text xml:space="preserve" text-anchor="middle" x="211.88" y="-132.45" font-family="Arial" font-size="14.00" fill="#cfffac">_navbar.scss</text>
</g>
<!-- _problem.scss -->
<g id="node11" class="node">
<title>_problem.scss</title>
<path fill="none" stroke="#cfffac" d="M255.83,-107.75C255.83,-107.75 167.92,-107.75 167.92,-107.75 163.96,-107.75 160,-103.79 160,-99.83 160,-99.83 160,-91.92 160,-91.92 160,-87.96 163.96,-84 167.92,-84 167.92,-84 255.83,-84 255.83,-84 259.79,-84 263.75,-87.96 263.75,-91.92 263.75,-91.92 263.75,-99.83 263.75,-99.83 263.75,-103.79 259.79,-107.75 255.83,-107.75"/>
<text xml:space="preserve" text-anchor="middle" x="211.88" y="-90.45" font-family="Arial" font-size="14.00" fill="#cfffac">_problem.scss</text>
</g>
<!-- _responsive.scss -->
<g id="node12" class="node">
<title>_responsive.scss</title>
<path fill="none" stroke="#cfffac" d="M263.71,-65.75C263.71,-65.75 160.04,-65.75 160.04,-65.75 156.08,-65.75 152.12,-61.79 152.12,-57.83 152.12,-57.83 152.12,-49.92 152.12,-49.92 152.12,-45.96 156.08,-42 160.04,-42 160.04,-42 263.71,-42 263.71,-42 267.67,-42 271.62,-45.96 271.62,-49.92 271.62,-49.92 271.62,-57.83 271.62,-57.83 271.62,-61.79 267.67,-65.75 263.71,-65.75"/>
<text xml:space="preserve" text-anchor="middle" x="211.88" y="-48.45" font-family="Arial" font-size="14.00" fill="#cfffac">_responsive.scss</text>
</g>
<!-- _variables.scss -->
<g id="node13" class="node">
<title>_variables.scss</title>
<path fill="none" stroke="#cfffac" d="M258.08,-23.75C258.08,-23.75 165.67,-23.75 165.67,-23.75 161.71,-23.75 157.75,-19.79 157.75,-15.83 157.75,-15.83 157.75,-7.92 157.75,-7.92 157.75,-3.96 161.71,0 165.67,0 165.67,0 258.08,0 258.08,0 262.04,0 266,-3.96 266,-7.92 266,-7.92 266,-15.83 266,-15.83 266,-19.79 262.04,-23.75 258.08,-23.75"/>
<text xml:space="preserve" text-anchor="middle" x="211.88" y="-6.45" font-family="Arial" font-size="14.00" fill="#cfffac">_variables.scss</text>
</g>
<!-- style.min.css -->
<g id="node14" class="node">
<title>style.min.css</title>
<path fill="none" stroke="#cfffac" d="M86.08,-317.75C86.08,-317.75 7.92,-317.75 7.92,-317.75 3.96,-317.75 0,-313.79 0,-309.83 0,-309.83 0,-301.92 0,-301.92 0,-297.96 3.96,-294 7.92,-294 7.92,-294 86.08,-294 86.08,-294 90.04,-294 94,-297.96 94,-301.92 94,-301.92 94,-309.83 94,-309.83 94,-313.79 90.04,-317.75 86.08,-317.75"/>
<text xml:space="preserve" text-anchor="middle" x="47" y="-300.45" font-family="Arial" font-size="14.00" fill="#cfffac">style.min.css</text>
</g>
<!-- style.scss -->
<g id="node15" class="node">
<title>style.scss</title>
<path fill="none" stroke="#c6c5fe" d="M76.33,-275.75C76.33,-275.75 17.67,-275.75 17.67,-275.75 13.71,-275.75 9.75,-271.79 9.75,-267.83 9.75,-267.83 9.75,-259.92 9.75,-259.92 9.75,-255.96 13.71,-252 17.67,-252 17.67,-252 76.33,-252 76.33,-252 80.29,-252 84.25,-255.96 84.25,-259.92 84.25,-259.92 84.25,-267.83 84.25,-267.83 84.25,-271.79 80.29,-275.75 76.33,-275.75"/>
<text xml:space="preserve" text-anchor="middle" x="47" y="-258.45" font-family="Arial" font-size="14.00" fill="#c6c5fe">style.scss</text>
</g>
<!-- style.scss&#45;&gt;_base.scss -->
<g id="edge1" class="edge">
<title>style.scss&#45;&gt;_base.scss</title>
<path fill="none" stroke="#757575" d="M84.22,-276.03C87.94,-278.48 91.32,-281.4 94,-284.88 151.77,-359.91 65.92,-425.15 130,-494.88 137.66,-503.21 148.16,-508.41 159.05,-511.62"/>
<polygon fill="#757575" stroke="#757575" points="157.99,-514.96 168.52,-513.86 159.6,-508.15 157.99,-514.96"/>
</g>
<!-- style.scss&#45;&gt;_bootstrap&#45;override.scss -->
<g id="edge2" class="edge">
<title>style.scss&#45;&gt;_bootstrap&#45;override.scss</title>
<path fill="none" stroke="#757575" d="M84.08,-276.14C87.82,-278.57 91.25,-281.45 94,-284.88 141.83,-344.4 77.18,-397.73 130,-452.88 130.72,-453.63 131.47,-454.36 132.24,-455.07"/>
<polygon fill="#757575" stroke="#757575" points="129.88,-457.68 140.01,-460.8 134.04,-452.05 129.88,-457.68"/>
</g>
<!-- style.scss&#45;&gt;_community.scss -->
<g id="edge3" class="edge">
<title>style.scss&#45;&gt;_community.scss</title>
<path fill="none" stroke="#757575" d="M83.41,-276.03C87.36,-278.49 91.02,-281.41 94,-284.88 131.98,-329.03 88.32,-370.19 130,-410.88 133.39,-414.18 137.22,-416.98 141.34,-419.36"/>
<polygon fill="#757575" stroke="#757575" points="139.48,-422.35 150.01,-423.51 142.51,-416.04 139.48,-422.35"/>
</g>
<!-- style.scss&#45;&gt;_docs&#45;preview.scss -->
<g id="edge4" class="edge">
<title>style.scss&#45;&gt;_docs&#45;preview.scss</title>
<path fill="none" stroke="#757575" d="M82.54,-276.13C86.73,-278.59 90.69,-281.48 94,-284.88 122.38,-313.93 99.2,-342.4 130,-368.88 131.69,-370.33 133.47,-371.68 135.32,-372.95"/>
<polygon fill="#757575" stroke="#757575" points="133.37,-375.86 143.79,-377.77 136.83,-369.78 133.37,-375.86"/>
</g>
<!-- style.scss&#45;&gt;_docs.scss -->
<g id="edge5" class="edge">
<title>style.scss&#45;&gt;_docs.scss</title>
<path fill="none" stroke="#757575" d="M79.72,-276.14C84.71,-278.68 89.65,-281.6 94,-284.88 113.64,-299.66 109.15,-313.85 130,-326.88 138.86,-332.4 149.12,-336.48 159.31,-339.49"/>
<polygon fill="#757575" stroke="#757575" points="158.24,-342.83 168.8,-341.97 160.01,-336.06 158.24,-342.83"/>
</g>
<!-- style.scss&#45;&gt;_features.scss -->
<g id="edge6" class="edge">
<title>style.scss&#45;&gt;_features.scss</title>
<path fill="none" stroke="#757575" d="M84.55,-273.3C104.46,-278.43 129.57,-284.91 152.15,-290.73"/>
<polygon fill="#757575" stroke="#757575" points="150.98,-294.04 161.54,-293.15 152.73,-287.27 150.98,-294.04"/>
</g>
<!-- style.scss&#45;&gt;_footer.scss -->
<g id="edge7" class="edge">
<title>style.scss&#45;&gt;_footer.scss</title>
<path fill="none" stroke="#757575" d="M84.55,-263.88C105.67,-263.88 132.64,-263.88 156.24,-263.88"/>
<polygon fill="#757575" stroke="#757575" points="156,-267.38 166,-263.88 156,-260.38 156,-267.38"/>
</g>
<!-- style.scss&#45;&gt;_home.scss -->
<g id="edge8" class="edge">
<title>style.scss&#45;&gt;_home.scss</title>
<path fill="none" stroke="#757575" d="M84.55,-254.45C105.68,-249 132.68,-242.04 156.29,-235.95"/>
<polygon fill="#757575" stroke="#757575" points="156.94,-239.4 165.75,-233.51 155.19,-232.62 156.94,-239.4"/>
</g>
<!-- style.scss&#45;&gt;_installation.scss -->
<g id="edge9" class="edge">
<title>style.scss&#45;&gt;_installation.scss</title>
<path fill="none" stroke="#757575" d="M60.53,-251.61C75.74,-237.39 102.74,-214.2 130,-200.88 133.74,-199.05 137.66,-197.37 141.66,-195.82"/>
<polygon fill="#757575" stroke="#757575" points="142.72,-199.16 151,-192.54 140.4,-192.55 142.72,-199.16"/>
</g>
<!-- style.scss&#45;&gt;_navbar.scss -->
<g id="edge10" class="edge">
<title>style.scss&#45;&gt;_navbar.scss</title>
<path fill="none" stroke="#757575" d="M54.03,-251.69C65.6,-229.64 93.07,-183.12 130,-158.88 137.08,-154.23 145.14,-150.6 153.37,-147.78"/>
<polygon fill="#757575" stroke="#757575" points="154.19,-151.19 162.75,-144.96 152.17,-144.49 154.19,-151.19"/>
</g>
<!-- style.scss&#45;&gt;_problem.scss -->
<g id="edge11" class="edge">
<title>style.scss&#45;&gt;_problem.scss</title>
<path fill="none" stroke="#757575" d="M51.17,-251.83C59.24,-223.63 83.29,-152.97 130,-116.88 135.65,-112.51 142.12,-109.05 148.88,-106.3"/>
<polygon fill="#757575" stroke="#757575" points="149.94,-109.63 158.24,-103.04 147.64,-103.02 149.94,-109.63"/>
</g>
<!-- style.scss&#45;&gt;_responsive.scss -->
<g id="edge12" class="edge">
<title>style.scss&#45;&gt;_responsive.scss</title>
<path fill="none" stroke="#757575" d="M49.61,-251.53C54.67,-217.78 73.47,-123.24 130,-74.88 133.44,-71.94 137.23,-69.4 141.26,-67.21"/>
<polygon fill="#757575" stroke="#757575" points="142.62,-70.44 150.26,-63.1 139.71,-64.07 142.62,-70.44"/>
</g>
<!-- style.scss&#45;&gt;_variables.scss -->
<g id="edge13" class="edge">
<title>style.scss&#45;&gt;_variables.scss</title>
<path fill="none" stroke="#757575" d="M48.51,-251.7C50.78,-213.37 63.18,-94.12 130,-32.88 134.93,-28.35 140.71,-24.78 146.88,-21.96"/>
<polygon fill="#757575" stroke="#757575" points="148.02,-25.27 156.11,-18.43 145.52,-18.73 148.02,-25.27"/>
</g>
</g>
</svg>
