<?xml version="1.0" encoding="UTF-8" standalone="no"?>
<!DOCTYPE svg PUBLIC "-//W3C//DTD SVG 1.1//EN"
 "http://www.w3.org/Graphics/SVG/1.1/DTD/svg11.dtd">
<!-- Generated by graphviz version 14.1.5 (0)
 -->
<!-- Title: Website Pages: 1 -->
<svg width="407pt" height="422pt"
 viewBox="0.00 0.00 407.00 422.00" xmlns="http://www.w3.org/2000/svg" xmlns:xlink="http://www.w3.org/1999/xlink">
<g id="graph0" class="graph" transform="scale(1 1) rotate(0) translate(4 418)">
<title>Website</title>
<polygon fill="white" stroke="none" points="-4,4 -4,-418 402.53,-418 402.53,4 -4,4"/>
<!-- index.html -->
<g id="node1" class="node">
<title>index.html</title>
<ellipse fill="none" stroke="black" cx="51.35" cy="-207" rx="51.35" ry="18"/>
<text xml:space="preserve" text-anchor="middle" x="51.35" y="-201.95" font-family="Times,serif" font-size="14.00">index.html</text>
</g>
<!-- init.js -->
<g id="node2" class="node">
<title>init.js</title>
<ellipse fill="none" stroke="black" cx="170.61" cy="-207" rx="31.9" ry="18"/>
<text xml:space="preserve" text-anchor="middle" x="170.61" y="-201.95" font-family="Times,serif" font-size="14.00">init.js</text>
</g>
<!-- index.html&#45;&gt;init.js -->
<g id="edge1" class="edge">
<title>index.html&#45;&gt;init.js</title>
<path fill="none" stroke="black" d="M103.1,-207C111.07,-207 119.24,-207 127.01,-207"/>
<polygon fill="black" stroke="black" points="126.89,-210.5 136.89,-207 126.89,-203.5 126.89,-210.5"/>
</g>
<!-- navbar.html -->
<g id="node3" class="node">
<title>navbar.html</title>
<ellipse fill="none" stroke="black" cx="318.52" cy="-396" rx="55.45" ry="18"/>
<text xml:space="preserve" text-anchor="middle" x="318.52" y="-390.95" font-family="Times,serif" font-size="14.00">navbar.html</text>
</g>
<!-- init.js&#45;&gt;navbar.html -->
<g id="edge2" class="edge">
<title>init.js&#45;&gt;navbar.html</title>
<path fill="none" stroke="black" d="M174.16,-225.33C179.76,-258.61 196.15,-329.2 238.51,-369 244.54,-374.66 251.8,-379.14 259.46,-382.69"/>
<polygon fill="black" stroke="black" points="258.07,-385.9 268.65,-386.4 260.68,-379.41 258.07,-385.9"/>
</g>
<!-- hero.html -->
<g id="node4" class="node">
<title>hero.html</title>
<ellipse fill="none" stroke="black" cx="318.52" cy="-342" rx="47.26" ry="18"/>
<text xml:space="preserve" text-anchor="middle" x="318.52" y="-336.95" font-family="Times,serif" font-size="14.00">hero.html</text>
</g>
<!-- init.js&#45;&gt;hero.html -->
<g id="edge3" class="edge">
<title>init.js&#45;&gt;hero.html</title>
<path fill="none" stroke="black" d="M178.23,-224.96C187.91,-248.84 208.15,-290.81 238.51,-315 246.42,-321.3 255.88,-326.17 265.47,-329.93"/>
<polygon fill="black" stroke="black" points="264.24,-333.2 274.83,-333.21 266.55,-326.6 264.24,-333.2"/>
</g>
<!-- problem.html -->
<g id="node5" class="node">
<title>problem.html</title>
<ellipse fill="none" stroke="black" cx="318.52" cy="-288" rx="62.1" ry="18"/>
<text xml:space="preserve" text-anchor="middle" x="318.52" y="-282.95" font-family="Times,serif" font-size="14.00">problem.html</text>
</g>
<!-- init.js&#45;&gt;problem.html -->
<g id="edge4" class="edge">
<title>init.js&#45;&gt;problem.html</title>
<path fill="none" stroke="black" d="M187.48,-222.51C200.35,-234.39 219.43,-250.47 238.51,-261 245.83,-265.04 253.87,-268.63 261.93,-271.77"/>
<polygon fill="black" stroke="black" points="260.46,-274.96 271.05,-275.12 262.87,-268.39 260.46,-274.96"/>
</g>
<!-- features.html -->
<g id="node6" class="node">
<title>features.html</title>
<ellipse fill="none" stroke="black" cx="318.52" cy="-234" rx="60.05" ry="18"/>
<text xml:space="preserve" text-anchor="middle" x="318.52" y="-228.95" font-family="Times,serif" font-size="14.00">features.html</text>
</g>
<!-- init.js&#45;&gt;features.html -->
<g id="edge5" class="edge">
<title>init.js&#45;&gt;features.html</title>
<path fill="none" stroke="black" d="M201.49,-212.53C217.09,-215.42 236.8,-219.06 255.52,-222.53"/>
<polygon fill="black" stroke="black" points="254.74,-225.94 265.21,-224.32 256.02,-219.06 254.74,-225.94"/>
</g>
<!-- docs&#45;preview.html -->
<g id="node7" class="node">
<title>docs&#45;preview.html</title>
<ellipse fill="none" stroke="black" cx="318.52" cy="-180" rx="80.01" ry="18"/>
<text xml:space="preserve" text-anchor="middle" x="318.52" y="-174.95" font-family="Times,serif" font-size="14.00">docs&#45;preview.html</text>
</g>
<!-- init.js&#45;&gt;docs&#45;preview.html -->
<g id="edge6" class="edge">
<title>init.js&#45;&gt;docs&#45;preview.html</title>
<path fill="none" stroke="black" d="M201.49,-201.47C214.03,-199.15 229.23,-196.34 244.43,-193.52"/>
<polygon fill="black" stroke="black" points="244.78,-197.02 253.97,-191.76 243.5,-190.14 244.78,-197.02"/>
</g>
<!-- installation.html -->
<g id="node8" class="node">
<title>installation.html</title>
<ellipse fill="none" stroke="black" cx="318.52" cy="-126" rx="71.82" ry="18"/>
<text xml:space="preserve" text-anchor="middle" x="318.52" y="-120.95" font-family="Times,serif" font-size="14.00">installation.html</text>
</g>
<!-- init.js&#45;&gt;installation.html -->
<g id="edge7" class="edge">
<title>init.js&#45;&gt;installation.html</title>
<path fill="none" stroke="black" d="M187.48,-191.49C200.35,-179.61 219.43,-163.53 238.51,-153 244.99,-149.42 252.03,-146.2 259.15,-143.33"/>
<polygon fill="black" stroke="black" points="260.05,-146.73 268.16,-139.92 257.57,-140.19 260.05,-146.73"/>
</g>
<!-- community.html -->
<g id="node9" class="node">
<title>community.html</title>
<ellipse fill="none" stroke="black" cx="318.52" cy="-72" rx="73.36" ry="18"/>
<text xml:space="preserve" text-anchor="middle" x="318.52" y="-66.95" font-family="Times,serif" font-size="14.00">community.html</text>
</g>
<!-- init.js&#45;&gt;community.html -->
<g id="edge8" class="edge">
<title>init.js&#45;&gt;community.html</title>
<path fill="none" stroke="black" d="M178.23,-189.04C187.91,-165.16 208.15,-123.19 238.51,-99 243.26,-95.22 248.56,-91.95 254.12,-89.13"/>
<polygon fill="black" stroke="black" points="255.28,-92.45 262.95,-85.15 252.4,-86.07 255.28,-92.45"/>
</g>
<!-- footer.html -->
<g id="node10" class="node">
<title>footer.html</title>
<ellipse fill="none" stroke="black" cx="318.52" cy="-18" rx="52.38" ry="18"/>
<text xml:space="preserve" text-anchor="middle" x="318.52" y="-12.95" font-family="Times,serif" font-size="14.00">footer.html</text>
</g>
<!-- init.js&#45;&gt;footer.html -->
<g id="edge9" class="edge">
<title>init.js&#45;&gt;footer.html</title>
<path fill="none" stroke="black" d="M174.16,-188.67C179.76,-155.39 196.15,-84.8 238.51,-45 244.97,-38.93 252.86,-34.22 261.12,-30.56"/>
<polygon fill="black" stroke="black" points="262.22,-33.89 270.29,-27.02 259.7,-27.36 262.22,-33.89"/>
</g>
</g>
</svg>
