<svg width="140" height="51" viewBox="0 0 140 51" fill="none" xmlns="http://www.w3.org/2000/svg">
<path d="M21.25 51C22.9833 51 24.45 50.55 25.65 49.65C26.85 48.75 27.45 47.5 27.45 45.9C27.45 44.6333 26.9833 43.5666 26.05 42.7C25.15 41.8333 23.9833 41.4 22.55 41.4C21.9166 41.4 21.6 41.5833 21.6 41.95C21.6 42.0833 21.7166 42.2833 21.95 42.55C22.1833 42.8166 22.4166 43.1833 22.65 43.65C22.8833 44.1166 23 44.75 23 45.55C23 46.5833 22.7333 47.3833 22.2 47.95C21.6666 48.55 21.0166 48.85 20.25 48.85C19.3166 48.85 18.5 48.4333 17.8 47.6C17.1 46.7666 16.75 45.4333 16.75 43.6V17.4H21.15C21.15 16.5 21.0833 15.9166 20.95 15.65C20.8166 15.3833 20.4833 15.1833 19.95 15.05L16.75 14.25C16.75 9.91664 15.9833 6.46664 14.45 3.89997C12.9166 1.29997 10.5833 -2.76566e-05 7.44995 -2.76566e-05C5.28328 -2.76566e-05 3.49995 0.516639 2.09995 1.54997C0.69995 2.58331 -5.06043e-05 3.91664 -5.06043e-05 5.54998C-5.06043e-05 6.98331 0.466617 8.16664 1.39995 9.09997C2.29995 9.99997 3.46662 10.45 4.89995 10.45C5.53328 10.45 5.84995 10.2666 5.84995 9.89997C5.84995 9.73331 5.74995 9.51664 5.54995 9.24998C5.34995 8.98331 5.14995 8.58331 4.94995 8.04997C4.74995 7.48331 4.64995 6.73331 4.64995 5.79998C4.64995 4.73331 4.94995 3.88331 5.54995 3.24998C6.14995 2.58331 6.96662 2.24997 7.99995 2.24997C9.53328 2.24997 10.6333 3.01664 11.3 4.54997C11.9333 6.04997 12.25 8.01664 12.25 10.45V14.25H5.24995C5.24995 15.75 5.63328 16.8 6.39995 17.4H12.25V39.75C12.25 43.0833 12.9833 45.7833 14.45 47.85C15.9166 49.95 18.1833 51 21.25 51Z" fill="white"/>
<path d="M26.95 39.8C25.5833 39.8 24.6 39.3833 24 38.55C23.4 37.7166 23.1 36.3666 23.1 34.5V5.39997C23.1 4.66664 22.7666 4.29997 22.1 4.29997H19.9L19.45 2.99997C20.4166 2.13331 21.5166 1.41664 22.75 0.849973C24.0166 0.283306 25.1166 -2.76566e-05 26.05 -2.76566e-05C26.5166 -2.76566e-05 26.8833 0.149972 27.15 0.449973C27.45 0.749973 27.6 1.13331 27.6 1.59997V34.7C27.6 35.8333 28.1 36.4 29.1 36.4C29.9333 36.4 30.7666 36.05 31.6 35.35L32.55 36.65C31.6833 37.6166 30.75 38.3833 29.75 38.95C28.75 39.5166 27.8166 39.8 26.95 39.8ZM46.0878 39.8C43.6878 39.8 41.8045 39.0833 40.4378 37.65C39.1045 36.1833 38.4378 34.1333 38.4378 31.5V19C38.4378 18.2666 38.1045 17.9 37.4378 17.9H35.2378L34.7878 16.6C35.6545 15.7333 36.7045 15.0166 37.9378 14.45C39.2045 13.8833 40.3545 13.6 41.3878 13.6C41.8545 13.6 42.2378 13.75 42.5378 14.05C42.8378 14.35 42.9878 14.7333 42.9878 15.2V30.35C42.9878 34.4166 44.5878 36.45 47.7878 36.45C50.0212 36.45 51.7545 35.4833 52.9878 33.55C54.2545 31.6166 54.8878 28.95 54.8878 25.55C54.8878 23.9166 54.8378 22.5166 54.7378 21.35C54.6712 20.1833 54.5045 19.1666 54.2378 18.3C53.9712 17.4 53.5378 16.5666 52.9378 15.8L52.3378 15L52.9378 14.25L59.0378 13.6V34.7C59.0378 35.7333 59.5212 36.25 60.4878 36.25C61.2545 36.25 62.0712 35.95 62.9378 35.35L63.8878 36.65C63.1212 37.5833 62.2212 38.35 61.1878 38.95C60.1878 39.5166 59.2545 39.8 58.3878 39.8C55.8212 39.8 54.5378 38.2 54.5378 35C53.8045 36.4666 52.6712 37.6333 51.1378 38.5C49.6378 39.3666 47.9545 39.8 46.0878 39.8ZM78.6296 39.8C76.2963 39.8 74.263 39.2666 72.5296 38.2C70.8296 37.1333 69.4963 35.65 68.5296 33.75C67.5963 31.8166 67.1296 29.5666 67.1296 27C67.1296 24.3 67.663 21.95 68.7296 19.95C69.7963 17.95 71.2963 16.4 73.2296 15.3C75.1963 14.1666 77.4796 13.6 80.0796 13.6C82.013 13.6 83.5963 13.95 84.8296 14.65C86.0963 15.35 87.0296 16.2666 87.6296 17.4C88.263 18.5 88.5796 19.6833 88.5796 20.95C88.5796 22.3166 88.213 23.65 87.4796 24.95C86.7796 26.25 85.713 27.3166 84.2796 28.15C82.8796 28.9833 81.1296 29.4 79.0296 29.4C78.6963 29.4 78.213 29.3666 77.5796 29.3C76.9796 29.2 76.363 29.0666 75.7296 28.9C75.1296 28.7 74.613 28.45 74.1796 28.15C73.7463 27.85 73.5296 27.4833 73.5296 27.05C73.5296 26.7833 73.5963 26.5333 73.7296 26.3C73.8963 26.0666 74.0796 25.95 74.2796 25.95C74.5463 25.95 74.8796 26.0666 75.2796 26.3C75.713 26.5 76.4463 26.6 77.4796 26.6C78.913 26.6 80.0963 26.3333 81.0296 25.8C81.963 25.2333 82.663 24.5166 83.1296 23.65C83.5963 22.75 83.8296 21.8333 83.8296 20.9C83.8296 19.6666 83.4296 18.5666 82.6296 17.6C81.8296 16.6 80.6463 16.1 79.0796 16.1C76.9463 16.1 75.2796 17.0333 74.0796 18.9C72.8796 20.7666 72.2796 23.4666 72.2796 27C72.2796 29.9333 72.8963 32.25 74.1296 33.95C75.3963 35.65 77.2463 36.5 79.6796 36.5C81.0796 36.5 82.3963 36.2666 83.6296 35.8C84.863 35.3333 85.9796 34.6166 86.9796 33.65C87.113 33.5166 87.263 33.45 87.4296 33.45C87.6963 33.45 87.9796 33.6166 88.2796 33.95C88.5796 34.25 88.7296 34.5666 88.7296 34.9C88.7296 35.0666 88.663 35.2166 88.5296 35.35C85.963 38.3166 82.663 39.8 78.6296 39.8ZM116.944 39.8C115.578 39.8 114.594 39.3833 113.994 38.55C113.394 37.7166 113.094 36.3666 113.094 34.5V22.6C113.094 19.2 111.661 17.5 108.794 17.5C107.361 17.5 106.094 18.0666 104.994 19.2C103.928 20.3333 103.078 21.9333 102.444 24C101.844 26.0333 101.544 28.4 101.544 31.1C101.544 32.6666 101.661 33.9166 101.894 34.85C102.128 35.7833 102.544 36.6833 103.144 37.55L103.744 38.35L103.144 39.1H94.3945L93.8445 37.55L94.8945 37.3C95.7611 37.1 96.3278 36.7333 96.5945 36.2C96.8611 35.6666 96.9945 34.7833 96.9945 33.55V19.5C96.9945 18.7666 96.6611 18.4 95.9945 18.4H93.7945L93.3445 17.1C94.3111 16.2333 95.4111 15.5166 96.6445 14.95C97.9111 14.3833 99.0111 14.1 99.9445 14.1C100.411 14.1 100.794 14.25 101.094 14.55C101.394 14.85 101.544 15.2333 101.544 15.7V21.05C102.111 19.5833 102.878 18.3 103.844 17.2C104.844 16.0666 105.944 15.1833 107.144 14.55C108.378 13.9166 109.628 13.6 110.894 13.6C113.228 13.6 114.928 14.3166 115.994 15.75C117.061 17.1833 117.594 19.4666 117.594 22.6V34.7C117.594 35.8333 118.094 36.4 119.094 36.4C119.861 36.4 120.694 36.05 121.594 35.35L122.544 36.65C121.678 37.6166 120.744 38.3833 119.744 38.95C118.744 39.5166 117.811 39.8 116.944 39.8Z" fill="white"/>
<path d="M131.3 39.94C129.66 39.94 128.38 39.44 127.46 38.44C126.58 37.4 126.14 35.98 126.14 34.18V13.06H120.86C120.86 11.98 120.94 11.28 121.1 10.96C121.26 10.64 121.66 10.4 122.3 10.24C123.86 9.83997 125.06 9.25997 125.9 8.49997C126.78 7.69997 127.42 6.79997 127.82 5.79998C128.26 4.79997 128.58 3.73997 128.78 2.61997C128.9 1.97997 129.1 1.57997 129.38 1.41997C129.7 1.25997 130.44 1.17997 131.6 1.17997V9.27998H139.4C139.4 11.08 138.94 12.34 138.02 13.06H131.6V32.38C131.6 33.62 131.78 34.5 132.14 35.02C132.5 35.54 133.08 35.8 133.88 35.8C135.08 35.8 136.44 35.16 137.96 33.88L139.1 35.44C138.06 36.8 136.82 37.9 135.38 38.74C133.94 39.54 132.58 39.94 131.3 39.94Z" fill="white"/>
</svg>
